<svg height="481pt" viewBox="0 -22 481.59058 481" width="481pt" xmlns="http://www.w3.org/2000/svg"><path d="m390.816406 185.75c-.648437.011719-1.300781.019531-1.949218.019531-51.007813-.011719-92.421876-41.230469-92.675782-92.234375-.253906-51.007812 40.746094-92.636718 91.75-93.160156s92.847656 40.257812 93.636719 91.257812c.792969 51-39.765625 93.058594-90.761719 94.117188zm0 0" fill="#00acea"/><path d="m422.578125 217.511719c22.539063 22.539062 21.257813 60.378906-2.863281 84.550781-29.308594 29.359375-62.578125 62.699219-89.949219 90.050781-1.203125-2.835937-2.945313-5.40625-5.128906-7.570312l-22.609375-22.613281c8.828125 8.3125 22.257812 8.589843 30.320312.53125 3.8125-3.84375 5.929688-9.054688 5.878906-14.46875-.050781-6.164063-2.539062-12.058594-6.921874-16.390626l-90.488282-90.609374 10.589844-10.601563-26.78125 2.621094c-18.019531 1.769531-33.109375-11.210938-33.859375-29.128907l-.769531-8.242187 50.820312-16.027344 75.230469-23.730469c1.238281-.390624 2.46875-.742187 3.710937-1.042968 17.558594 19.710937 42.710938 30.964844 69.109376 30.929687.648437 0 1.300781-.007812 1.949218-.019531zm0 0" fill="#fedb41"/><path d="m329.765625 392.113281c3.359375 7.949219 2.050781 17.167969-4.070313 23.289063l-.347656.347656c-6.140625 6.132812-15.371094 7.429688-23.320312 4.050781-2.824219-1.199219-5.390625-2.933593-7.550782-5.109375l-13.089843-13.089844c8.667969 8.667969 9.269531 22.167969 1.46875 30.441407-.128907.148437-.269531.289062-.410157.429687l-.027343.039063c-8.230469 8.230469-22.050781 7.75-30.871094-1.070313l-10.730469-10.71875-25.449218-25.453125c8.820312 8.820313 9.300781 22.640625 1.058593 30.871094l-.328125.332031c-4.457031 4.390625-10.675781 6.5-16.882812 5.730469-5.277344-.601563-10.195313-2.980469-13.9375-6.75-1.800782-1.792969-3.699219-3.683594-5.671875-5.652344-8.058594-8.03125-17.480469-17.429687-27.730469-27.679687-27.359375-27.339844-60.648438-60.699219-89.957031-90.058594-24.121094-24.171875-25.402344-62.011719-2.863281-84.550781l31.761718-31.761719c.648438.011719 1.300782.019531 1.949219.019531 26.398437.035157 51.550781-11.21875 69.109375-30.929687 1.242188.3125 2.480469.652344 3.710938 1.042968l75.230468 23.730469-50.820312 16.027344.769531 8.242187c.75 17.917969 15.839844 30.898438 33.859375 29.128907l26.78125-2.621094-10.589844 10.601563 90.488282 90.609374c4.382812 4.332032 6.871093 10.226563 6.921874 16.390626.050782 5.414062-2.066406 10.625-5.878906 14.46875-8.0625 8.058593-21.492187 7.78125-30.320312-.53125l22.609375 22.613281c2.183593 2.164062 3.925781 4.734375 5.128906 7.570312zm0 0" fill="#f4b844"/><g fill="#fedb41"><path d="m302.027344 419.800781c-1.972656 1.96875-3.871094 3.859375-5.671875 5.652344-3.613281 3.628906-8.316407 5.980469-13.390625 6.6875l-.109375-.097656c7.800781-8.273438 7.199219-21.773438-1.46875-30.441407l13.089843 13.089844c2.160157 2.175782 4.726563 3.910156 7.550782 5.109375zm0 0"/><path d="m215.367188 395.269531 25.449218 25.453125-10.730468 10.71875c-8.820313 8.820313-22.640626 9.300782-30.871094 1.070313l-.027344-.039063.027344-.269531c6.207031.769531 12.425781-1.339844 16.882812-5.730469l.328125-.332031c8.242188-8.230469 7.761719-22.050781-1.058593-30.871094zm0 0"/><path d="m179.605469 419.800781c-7.960938 3.378907-17.1875 2.082031-23.320313-4.050781l-.347656-.347656c-6.121094-6.121094-7.429688-15.339844-4.0625-23.28125 10.25 10.25 19.671875 19.648437 27.730469 27.679687zm0 0"/></g><path d="m161.875 154.839844c-17.558594 19.710937-42.710938 30.964844-69.109375 30.929687-.648437 0-1.300781-.007812-1.949219-.019531-43.566406-.902344-80.628906-32.015625-89.0625-74.765625-8.433594-42.753906 14.035156-85.609375 53.992188-102.992187 39.960937-17.382813 86.628906-4.597657 112.15625 30.71875 25.523437 35.320312 23.015625 83.644531-6.027344 116.128906zm0 0" fill="#00efd1"/><path d="m432.285156 116.960938v29.890624h-87.800781v-29.890624c-.003906-11.683594 9.464844-21.164063 21.152344-21.167969 5.316406 7.234375 13.761719 11.511719 22.746093 11.511719 8.980469 0 17.425782-4.277344 22.742188-11.511719 11.691406 0 21.164062 9.480469 21.160156 21.167969zm0 0" fill="#00efd1"/><path d="m411.90625 62.769531c0 12.992188-10.53125 23.523438-23.519531 23.523438s-23.519531-10.53125-23.519531-23.523438c0-12.988281 10.53125-23.519531 23.519531-23.519531s23.519531 10.53125 23.519531 23.519531zm0 0" fill="#00efd1"/><path d="m136.175781 116.960938v29.890624h-87.800781v-29.890624c-.003906-11.6875 9.472656-21.167969 21.160156-21.167969 5.316406 7.234375 13.761719 11.507812 22.742188 11.507812 8.976562 0 17.421875-4.273437 22.738281-11.507812 11.691406 0 21.164063 9.480469 21.160156 21.167969zm0 0" fill="#00acea"/><path d="m115.796875 62.769531c0 12.992188-10.53125 23.523438-23.519531 23.523438-12.992188 0-23.519532-10.53125-23.519532-23.523438 0-12.988281 10.527344-23.519531 23.519532-23.519531 12.988281 0 23.519531 10.53125 23.519531 23.519531zm0 0" fill="#00acea"/></svg>